<svg width="11" height="14" viewBox="0 0 11 14" fill="none" xmlns="http://www.w3.org/2000/svg">
<path d="M2.94605 13.8533L10.523 7.44669C10.6504 7.32943 10.7225 7.16732 10.7225 6.99787C10.7225 6.82842 10.6504 6.66631 10.523 6.54905L2.94605 0.145379C2.82461 0.0419007 2.66465 -0.00987563 2.50273 0.00188675C2.34081 0.0136491 2.19079 0.0879445 2.08695 0.207789L1.14097 1.28683C0.921106 1.53718 0.951129 1.91057 1.20841 2.12557L6.95175 6.88793C6.98528 6.91563 7.00457 6.95599 7.00457 6.99846C7.00457 7.04092 6.98528 7.08128 6.95175 7.10898L1.21023 11.8731C1.0859 11.9768 1.00961 12.1237 0.998188 12.2814C0.983617 12.4383 1.03577 12.5942 1.14279 12.7136L2.08938 13.7932C2.19341 13.9128 2.34339 13.9868 2.5052 13.9986C2.66701 14.0104 2.82689 13.9588 2.94848 13.8556L2.94605 13.8533Z" fill="#CA8643"/>
</svg>
