<svg width="22" height="29" viewBox="0 0 22 29" fill="none" xmlns="http://www.w3.org/2000/svg">
<mask id="path-1-inside-1" fill="white">
<path d="M11 0C4.92778 0.00701881 0.00701881 4.92778 0 11C0 18.5807 8.68074 26.6177 11 28.5456H11.0271C13.3429 26.6177 22 18.5784 22 10.9988C21.9923 4.92707 17.0718 0.00701752 11 0Z"/>
</mask>
<path d="M11 0C4.92778 0.00701881 0.00701881 4.92778 0 11C0 18.5807 8.68074 26.6177 11 28.5456H11.0271C13.3429 26.6177 22 18.5784 22 10.9988C21.9923 4.92707 17.0718 0.00701752 11 0Z" fill="#799AB1"/>
<path d="M11 0L11.0023 -2L10.9977 -2L11 0ZM0 11L-2 10.9977V11H0ZM11 28.5456L9.72152 30.0836L10.2773 30.5456H11V28.5456ZM11.0271 28.5456V30.5456H11.7507L12.3068 30.0827L11.0271 28.5456ZM22 10.9988H24L24 10.9963L22 10.9988ZM10.9977 -2C3.8227 -1.99171 -1.99171 3.8227 -2 10.9977L2 11.0023C2.00574 6.03285 6.03285 2.00574 11.0023 2L10.9977 -2ZM-2 11C-2 15.4771 0.519199 19.8288 3.04508 23.1121C5.62176 26.4615 8.48725 29.0576 9.72152 30.0836L12.2785 27.0076C11.1935 26.1057 8.55897 23.7194 6.21547 20.6731C3.82117 17.5608 2 14.1037 2 11H-2ZM11 30.5456H11.0271V26.5456H11V30.5456ZM12.3068 30.0827C13.5401 29.0559 16.3988 26.4588 18.9688 23.109C21.4885 19.8248 24 15.4736 24 10.9988H20C20 14.1037 18.183 17.5619 15.7952 20.6742C13.4577 23.7209 10.8299 26.1074 9.74753 27.0085L12.3068 30.0827ZM24 10.9963C23.991 3.82187 18.1768 -1.99171 11.0023 -2L10.9977 2C15.9668 2.00574 19.9937 6.03227 20 11.0014L24 10.9963Z" fill="white" mask="url(#path-1-inside-1)"/>
</svg>
