<svg width="11" height="16" viewBox="0 0 11 16" fill="none" xmlns="http://www.w3.org/2000/svg">
<path fill-rule="evenodd" clip-rule="evenodd" d="M0 5.33333C0.00330659 2.38918 2.38918 0.00330659 5.33333 0C8.27748 0.00330659 10.6634 2.38918 10.6667 5.33333C10.6667 7.676 7.33333 13.3507 5.90133 15.682C5.78098 15.8804 5.56537 16.0011 5.33333 16C5.10173 16.0001 4.88669 15.8799 4.76533 15.6827C3.33333 13.35 0 7.67333 0 5.33333ZM3 5.33333C3 6.622 4.04467 7.66666 5.33333 7.66666C6.622 7.66666 7.66666 6.622 7.66666 5.33333C7.66666 4.04467 6.622 3 5.33333 3C4.04467 3 3 4.04467 3 5.33333Z" fill="#CA8643"/>
</svg>
