<svg width="19" height="14" viewBox="0 0 19 14" fill="none" xmlns="http://www.w3.org/2000/svg">
<path fill-rule="evenodd" clip-rule="evenodd" d="M13.6689 5.31761L17.4745 5.79261C18.346 5.9016 19 6.64249 19 7.52082V10.2917C19.0004 10.8581 18.6007 11.346 18.0453 11.457C17.9891 11.4686 17.9307 11.4552 17.8852 11.4205C17.8396 11.3857 17.8114 11.3329 17.8078 11.2757C17.7008 9.60541 16.3125 8.30677 14.6388 8.31138C12.9651 8.31599 11.584 9.62226 11.4863 11.2931C11.48 11.3978 11.3932 11.4793 11.2884 11.4792H7.714C7.60947 11.4789 7.52315 11.3974 7.51688 11.2931C7.41914 9.62226 6.03804 8.31599 4.36434 8.31138C2.69064 8.30677 1.30236 9.60541 1.19542 11.2757C1.19178 11.3329 1.16354 11.3857 1.11799 11.4205C1.07243 11.4552 1.01404 11.4686 0.957917 11.457C0.401207 11.3473 -0.000113571 10.8591 0 10.2917V6.33332C0.000900074 6.04904 0.104988 5.77475 0.292917 5.56144L2.14621 1.92532C2.47994 1.34889 3.09436 0.992713 3.76042 0.989568C4.41625 0.989568 4.94792 1.52123 4.94792 2.17707V4.9479C4.94792 5.05721 5.03653 5.14582 5.14583 5.14582H5.84408C5.90563 5.14732 5.9643 5.11975 6.00242 5.0714C6.03971 5.02465 6.05395 4.96358 6.04121 4.90515L5.70871 3.40098C5.61427 2.97403 5.88382 2.55136 6.31077 2.45692C6.73772 2.36248 7.16039 2.63203 7.25483 3.05898L8.19613 7.3134C8.21109 7.38205 8.26145 7.43754 8.32833 7.45907C8.45105 7.49918 8.57924 7.52001 8.70833 7.52082H11.4792C11.6978 7.52082 11.875 7.3436 11.875 7.12498V6.16153C11.8749 6.07978 11.8246 6.0065 11.7483 5.97707L10.5608 5.52028C10.4999 5.49647 10.431 5.50447 10.3772 5.54165C10.3239 5.57891 10.292 5.63972 10.2917 5.70473V5.73957C10.2917 6.06749 10.0258 6.33332 9.69792 6.33332C9.37 6.33332 9.10417 6.06749 9.10417 5.73957V3.7604C9.10417 3.43248 9.37 3.16665 9.69792 3.16665C10.0258 3.16665 10.2917 3.43248 10.2917 3.7604V4.00819C10.2931 4.08856 10.3433 4.15998 10.4183 4.18869L11.2314 4.50536C11.3036 4.53272 11.3851 4.51562 11.4402 4.46154C11.4953 4.40747 11.5139 4.32629 11.4879 4.25361L10.5743 1.71394C10.546 1.63558 10.4716 1.58335 10.3883 1.58332H9.69792C9.26069 1.58332 8.90625 1.22888 8.90625 0.791651C8.90625 0.354426 9.26069 -1.52588e-05 9.69792 -1.52588e-05H11.0833C11.4171 -8.65485e-05 11.7151 0.209233 11.8283 0.523276L13.5106 5.18778C13.5353 5.25701 13.5962 5.30695 13.6689 5.31761ZM3.16667 5.14582C3.27598 5.14582 3.36459 5.05721 3.36459 4.9479V3.83957C3.36458 3.74798 3.30174 3.66836 3.21266 3.64707C3.12358 3.62579 3.03153 3.66841 2.99013 3.75011L2.42725 4.85844C2.39616 4.9198 2.39916 4.99289 2.43516 5.0515C2.47116 5.1101 2.53501 5.14581 2.60379 5.14582H3.16667Z" fill="#CA8643"/>
<path fill-rule="evenodd" clip-rule="evenodd" d="M1.97925 11.4791C1.97925 10.1675 3.04257 9.10414 4.35425 9.10414C5.66592 9.10414 6.72925 10.1675 6.72925 11.4791C6.72925 12.7908 5.66592 13.8541 4.35425 13.8541C3.04257 13.8541 1.97925 12.7908 1.97925 11.4791ZM3.56258 11.4791C3.56258 11.9164 3.91702 12.2708 4.35424 12.2708C4.79147 12.2708 5.14591 11.9164 5.14591 11.4791C5.14591 11.0419 4.79147 10.6875 4.35424 10.6875C3.91702 10.6875 3.56258 11.0419 3.56258 11.4791Z" fill="#CA8643"/>
<path fill-rule="evenodd" clip-rule="evenodd" d="M12.2708 11.4791C12.2708 10.1675 13.3341 9.10414 14.6458 9.10414C15.9574 9.10414 17.0208 10.1675 17.0208 11.4791C17.0208 12.7908 15.9574 13.8541 14.6458 13.8541C13.3341 13.8541 12.2708 12.7908 12.2708 11.4791ZM13.8541 11.4791C13.8541 11.9164 14.2085 12.2708 14.6458 12.2708C15.083 12.2708 15.4374 11.9164 15.4374 11.4791C15.4374 11.0419 15.083 10.6875 14.6458 10.6875C14.2085 10.6875 13.8541 11.0419 13.8541 11.4791Z" fill="#CA8643"/>
</svg>
