<svg width="16" height="16" viewBox="0 0 16 16" fill="none" xmlns="http://www.w3.org/2000/svg">
<path fill-rule="evenodd" clip-rule="evenodd" d="M12.6882 10.9024L15.6289 13.8431C16.1232 14.3375 16.1232 15.139 15.6289 15.6335C15.131 16.1192 14.3365 16.1192 13.8385 15.6335L10.8978 12.6934C8.12154 14.5495 4.39008 13.9969 2.27091 11.4158C0.151738 8.83473 0.336089 5.06707 2.69712 2.70521C5.05814 0.343348 8.82574 0.157665 11.4076 2.27592C13.9894 4.39418 14.5433 8.12545 12.6882 10.9024ZM11.8848 7.29948C11.8848 4.76455 9.82985 2.70958 7.29492 2.70958C4.76114 2.71237 2.70781 4.7657 2.70502 7.29948C2.70502 9.83441 4.75999 11.8894 7.29492 11.8894C9.82985 11.8894 11.8848 9.83441 11.8848 7.29948Z" fill="white"/>
</svg>
