<svg width="14" height="14" viewBox="0 0 14 14" fill="none" xmlns="http://www.w3.org/2000/svg">
<path fill-rule="evenodd" clip-rule="evenodd" d="M0 7C0 3.13401 3.13401 0 7 0C10.8643 0.00417949 13.9958 3.13574 14 7C14 10.866 10.866 14 7 14C3.13401 14 0 10.866 0 7ZM9.20908 10.0817C9.4485 10.2943 9.81345 10.2783 10.0333 10.0456V10.0461C10.1377 9.93172 10.1924 9.78047 10.1851 9.62574C10.1779 9.47101 10.1094 9.3255 9.99483 9.2213L7.29167 6.7433V3.79164C7.29167 3.46947 7.0305 3.2083 6.70833 3.2083C6.38617 3.2083 6.125 3.46947 6.125 3.79164V6.99997C6.12558 7.16379 6.19502 7.31981 6.31633 7.42989L9.20908 10.0817Z" fill="#CA8643"/>
</svg>
